<svg width="550" height="137" viewBox="0 0 550 137" fill="none" xmlns="http://www.w3.org/2000/svg">
<path fill-rule="evenodd" clip-rule="evenodd" d="M40.6301 54.1796C52.822 54.1796 63.2222 43.5115 63.2222 31.047C63.176 18.4637 52.8843 8 40.5882 8H40.5464C28.37 8 18 18.7937 18 31.1365C18 43.7259 28.4739 54.1796 40.6301 54.1796ZM40.6301 42.1285C34.7435 42.1285 29.7928 37.1301 29.7928 31.0937C29.7928 25.139 34.8003 20.0122 40.5882 20.0122C46.4705 20.0122 51.3827 25.0405 51.4294 31.047C51.414 37.0038 46.4721 42.1285 40.6301 42.1285Z" fill="#2C68FA"/>
<path d="M147.029 57.4387C147.029 39.3041 131.138 24.7937 113.702 24.7937H113.656L74.8273 24.8832C71.6866 24.8832 68.9956 27.5994 68.9956 30.8212C68.9956 34.0958 71.6107 36.7591 74.8273 36.7591L113.656 36.6695H113.698C124.883 36.6695 135.32 45.7319 135.32 57.4426L135.361 76.4491C135.361 91.7271 120.677 98.1865 107.604 96.4239C89.2638 94.0098 83.5455 94.0293 65.3386 96.5135C52.2505 98.2875 37.5504 91.8796 37.4935 76.5815L37.4516 64.2165C37.4516 60.9419 34.8365 58.2785 31.6199 58.2785C28.4793 58.2785 25.7883 60.9947 25.7883 64.2165L25.8301 76.5815C25.8301 99.1352 47.2938 110.865 66.9184 108.245C84.0822 105.905 88.7689 105.89 106.108 108.156C125.555 110.776 147.067 98.2589 147.067 76.3595L147.029 57.4387Z" fill="#2C68FA"/>
<path d="M108.081 117.178C111.159 117.948 113.043 121.333 112.283 124.451L112.279 124.459C111.442 127.617 108.225 129.528 105.108 128.719C91.6326 125.473 81.5122 125.559 68.0462 128.808C65.0106 129.646 61.6997 127.652 60.8708 124.548L60.867 124.541C60.1077 121.426 61.9928 118.03 65.0733 117.267C80.5663 113.525 92.5782 113.432 108.081 117.178Z" fill="#2C68FA"/>
<path d="M238.293 54.2261C250.56 54.2261 260.58 64.7825 260.58 76.8516C260.58 89.0171 250.608 99.3924 238.293 99.3924C225.949 99.3924 216.007 89.0511 216.007 76.8516C216.007 64.7689 225.99 54.2261 238.293 54.2261ZM238.293 63.5474C231.097 63.5474 226.853 70.2599 226.853 76.8516C226.853 83.4178 231.15 90.071 238.293 90.071C245.436 90.071 249.733 83.4177 249.733 76.8516C249.733 70.2599 245.49 63.5474 238.293 63.5474Z" fill="#2C68FA"/>
<path d="M295.235 54.3108C296.817 54.3108 298.116 54.3956 299.133 54.565V64.6491C298.229 64.5361 296.901 64.4796 295.15 64.4796C291.252 64.4796 287.947 65.8072 285.236 68.4624C282.58 71.061 281.055 74.5636 280.66 78.9701V98.7992H269.813V54.7345H280.66V68.7166C281.168 64.4231 282.609 60.9488 284.981 58.2936C287.411 55.6384 290.828 54.3108 295.235 54.3108Z" fill="#2C68FA"/>
<path d="M323.644 54.2261C326.864 54.2261 329.632 54.9322 331.948 56.3446C334.265 57.7569 335.564 59.1975 335.846 60.6663V54.7345H346.693V98.7992H335.846V92.2742C333.752 96.3097 327.813 99.3924 323.644 99.3924C311.228 99.3924 302.967 88.5366 302.967 76.7669C302.967 65.1557 311.402 54.2261 323.644 54.2261ZM325.339 63.5474C318.221 63.5474 313.814 70.1975 313.814 76.7669C313.814 83.4186 318.118 90.071 325.339 90.071C332.785 90.071 336.355 83.4815 336.355 76.7669C336.355 72.2474 335.281 68.9143 333.135 66.7676C331.044 64.6208 328.446 63.5474 325.339 63.5474Z" fill="#2C68FA"/>
<path d="M213.905 48.1482H195.411C190.947 48.1482 187.328 51.8434 187.328 56.4017V64.028H209.888L207.579 74.2365H187.328V99.1904H175.876V55.8004C175.876 46.0326 183.632 38.1143 193.199 38.1143H213.905V48.1482Z" fill="#2C68FA"/>
<path d="M495.196 38.1143H504.103L502.763 48.1236H495.765C491.91 48.1236 489.306 50.8597 489.306 54.9638V57.8167H501.326L499.979 67.8641H489.306V98.799H478.91V55.891C478.91 45.2128 485.466 38.1143 495.196 38.1143Z" fill="#2C68FA"/>
<path d="M531.431 68.1264H521.336V80.4303C521.336 85.9484 524.013 89.2563 528.657 89.2563H533.876L532.378 99.3716H526.339C517.139 99.3716 510.974 92.4643 510.974 82.1725V42.6948H521.336V57.9727H532.765L531.431 68.1264Z" fill="#2C68FA"/>
<path d="M410.402 41.4662C413.887 43.75 416.458 46.5477 418.115 49.8593L408.26 53.2851C405.493 47.3861 390.178 44.5858 390.178 53.7133C390.178 59.5499 396.647 60.8133 401.061 62.3634C410.052 65.4119 419.486 71.103 419.486 81.719C419.486 92.8776 408.071 99.1904 397.976 99.1904C388.425 99.1904 379.068 94.508 375.695 85.1448L384.95 81.0339C386.969 86.329 392.458 89.427 397.976 89.427C402.75 89.427 408.26 87.2276 408.26 81.719C408.26 76.0378 402.747 73.9855 398.147 72.3838C388.946 69.2379 378.866 64.9064 378.866 53.7133C378.866 38.4905 399.815 34.4123 410.402 41.4662Z" fill="#2C68FA"/>
<path d="M448.529 54.2261C460.795 54.2261 470.816 64.7826 470.816 76.8516C470.816 88.9343 460.634 99.3924 448.529 99.3924C436.185 99.3924 426.242 89.0511 426.242 76.8516C426.242 64.7689 436.226 54.2261 448.529 54.2261ZM448.529 63.5474C441.332 63.5474 437.089 70.2599 437.089 76.8516C437.089 83.4178 441.386 90.071 448.529 90.071C455.672 90.071 459.969 83.4178 459.969 76.8516C459.969 70.2599 455.726 63.5474 448.529 63.5474Z" fill="#2C68FA"/>
</svg>
