<svg width="194" height="194" viewBox="0 0 194 194" fill="none" xmlns="http://www.w3.org/2000/svg">
<rect width="194" height="194" rx="46" fill="#2C68FA"/>
<path fill-rule="evenodd" clip-rule="evenodd" d="M53.6184 80.1796C65.8041 80.1796 76.1988 69.5115 76.1988 57.047C76.1526 44.4637 65.8663 34 53.5766 34H53.5347C41.3646 34 31 44.7937 31 57.1365C31 69.7259 41.4685 80.1796 53.6184 80.1796ZM53.6184 68.1285C47.7348 68.1285 42.7867 63.1301 42.7867 57.0937C42.7867 51.139 47.7916 46.0122 53.5766 46.0122C59.4557 46.0122 64.3655 51.0405 64.4121 57.047C64.3967 63.0038 59.4574 68.1285 53.6184 68.1285Z" fill="white"/>
<path d="M159.962 83.4387C159.962 65.3041 144.08 50.7937 126.653 50.7937H126.607L87.7979 50.8832C84.6589 50.8832 81.9692 53.5994 81.9692 56.8212C81.9692 60.0958 84.583 62.7591 87.7979 62.7591L126.607 62.6695H126.649C137.828 62.6695 148.259 71.7319 148.259 83.4426L148.301 102.449C148.301 117.727 133.624 124.186 120.558 122.424C102.227 120.01 96.5116 120.029 78.3142 122.513C65.2328 124.287 50.5403 117.88 50.4834 102.581L50.4416 90.2165C50.4416 86.9419 47.8278 84.2785 44.6129 84.2785C41.4739 84.2785 38.7842 86.9947 38.7842 90.2165L38.8261 102.581C38.8261 125.135 60.2787 136.865 79.8931 134.245C97.0481 131.905 101.732 131.89 119.062 134.156C138.499 136.776 160 124.259 160 102.36L159.962 83.4387Z" fill="white"/>
<path d="M121.034 143.178C124.11 143.948 125.994 147.333 125.234 150.451L125.23 150.459C124.393 153.617 121.178 155.528 118.062 154.719C104.594 151.473 94.4789 151.559 81.0199 154.808C77.9858 155.646 74.6766 153.652 73.8482 150.548L73.8444 150.541C73.0854 147.426 74.9695 144.03 78.0485 143.267C93.5335 139.525 105.539 139.432 121.034 143.178Z" fill="white"/>
</svg>
